<?xml version="1.0"?>
<svg width="512" height="358" xmlns="http://www.w3.org/2000/svg">

 <g>
  <title>background</title>
  <rect fill="none" id="canvas_background" height="360" width="514" y="-1" x="-1"/>
 </g>
 <g>
  <title>Layer 1</title>
  <g id="svg_1"/>
  <path fill="#cccccc" id="svg_2" d="m220.436142,222.189682c0,-19.641083 15.92276,-35.563843 35.563858,-35.563843s35.56311,15.92276 35.56311,35.563843c0,19.641083 -15.922729,35.563126 -35.563843,35.563126c-19.641068,0 -35.563843,-15.922745 -35.563843,-35.563858l0.000717,0.000732zm77.891769,-78.204681c27.743073,15.047333 46.580658,44.426239 46.580658,78.204681s-18.837585,63.157364 -46.580658,78.204666c12.243286,-19.484253 19.907928,-47.307205 19.907928,-78.204666c0,-30.896759 -7.664642,-58.720398 -19.907928,-78.204681zm-104.563766,78.204681c0,30.896698 7.663925,58.720413 19.907959,78.204666c-27.742386,-15.048096 -46.580673,-44.426224 -46.580673,-78.204666c0,-33.778442 18.83757,-63.157349 46.580673,-78.204681c-12.244034,19.483551 -19.907959,47.30722 -19.907959,78.204681zm-53.345444,0c0,47.760391 15.115677,90.62706 39.078598,119.949844c-39.537521,-25.268494 -65.751297,-69.5466 -65.751297,-119.949844c0,-50.402588 26.213776,-94.680634 65.751297,-119.94989c-23.962921,29.3228 -39.0793,72.188751 -39.0793,119.94989l0.000702,0zm192.084717,-119.949173c39.536102,25.268539 65.75058,69.546585 65.75058,119.949142s-26.214478,94.680649 -65.75058,119.948502c23.962219,-29.322113 39.077881,-72.188782 39.077881,-119.948502c0,-47.760376 -15.115662,-90.627075 -39.077881,-119.949142z"/>
  <text transform="matrix(1.26071 0 0 1.26071 -50.5544 -23.2798)" xml:space="preserve" text-anchor="left" font-family="Helvetica, Arial, sans-serif" font-size="24" id="svg_3" y="80.563163" x="52.391366" stroke-opacity="null" stroke-width="0" fill="#cccccc">DRAG HOTSPOT ELEMENT HERE</text>
 </g>
</svg>