<svg xmlns="http://www.w3.org/2000/svg" version="1.1" x="0" y="0" width="283.46" height="198.43" viewBox="0" enable-background="new 0 0 283.46 198.43" xml:space="preserve"><path fill="#DADADA" d="M40.61 51.68c1.17-0.18 2.55-0.3 4.07-0.3 2.75 0 4.71 0.61 6.01 1.71 1.34 1.12 2.11 2.71 2.11 4.92 0 2.24-0.77 4.07-2.14 5.33 -1.41 1.28-3.7 1.97-6.58 1.97 -1.39 0-2.51-0.06-3.48-0.16V51.68zM42.53 63.8c0.48 0.06 1.19 0.08 1.94 0.08 4.12 0 6.32-2.12 6.32-5.82 0.02-3.23-1.96-5.29-6.01-5.29 -0.99 0-1.74 0.08-2.25 0.18V63.8z"/><path fill="#DADADA" d="M55.27 51.66c0.97-0.16 2.38-0.28 3.68-0.28 2.05 0 3.39 0.37 4.29 1.12 0.73 0.61 1.17 1.55 1.17 2.62 0 1.79-1.23 2.99-2.77 3.48v0.06c1.12 0.37 1.81 1.34 2.16 2.77 0.48 1.91 0.84 3.23 1.15 3.76h-1.98c-0.24-0.41-0.57-1.57-0.97-3.27 -0.44-1.89-1.25-2.6-2.99-2.66h-1.81v5.94h-1.92V51.66zM57.19 57.9h1.96c2.05 0 3.35-1.04 3.35-2.6 0-1.77-1.39-2.54-3.41-2.54 -0.92 0-1.56 0.06-1.89 0.14V57.9z"/><path fill="#DADADA" d="M69.63 60.87l-1.54 4.31h-1.98l5.06-13.71h2.29l5.06 13.71h-2.05l-1.58-4.31H69.63zM74.51 59.49l-1.47-3.95c-0.33-0.89-0.55-1.71-0.77-2.5h-0.04c-0.22 0.79-0.44 1.65-0.75 2.48l-1.45 3.97H74.51z"/><path fill="#DADADA" d="M91.68 64.57c-0.86 0.31-2.58 0.75-4.58 0.75 -2.25 0-4.1-0.53-5.55-1.81 -1.28-1.14-2.07-2.97-2.07-5.11 0-4.09 3.06-7.08 8.04-7.08 1.72 0 3.08 0.35 3.72 0.63l-0.48 1.44c-0.79-0.35-1.78-0.59-3.28-0.59 -3.61 0-5.97 2.08-5.97 5.51 0 3.48 2.25 5.53 5.73 5.53 1.25 0 2.11-0.16 2.55-0.37v-4.09h-2.99V57.98h4.89V64.57z"/><path fill="#DADADA" d="M106.92 58.75h-5.75v4.94h6.43v1.49H99.23V51.47h8.04v1.49h-6.1v4.33h5.75V58.75z"/><path fill="#DADADA" d="M110.06 51.47h1.94v12.22h6.34v1.49h-8.28V51.47z"/><path fill="#DADADA" d="M128.13 58.75h-5.75v4.94h6.43v1.49h-8.37V51.47h8.04v1.49h-6.1v4.33h5.75V58.75z"/><path fill="#DADADA" d="M143.81 59.16c-0.11-1.91-0.24-4.23-0.24-5.92h-0.04c-0.53 1.59-1.12 3.32-1.87 5.21l-2.62 6.65h-1.45l-2.42-6.53c-0.7-1.95-1.28-3.7-1.7-5.33h-0.04c-0.04 1.71-0.15 3.99-0.29 6.06l-0.4 5.88h-1.83l1.03-13.71h2.44l2.53 6.63c0.62 1.69 1.1 3.19 1.5 4.62h0.04c0.4-1.38 0.92-2.89 1.59-4.62l2.64-6.63h2.44l0.93 13.71h-1.89L143.81 59.16z"/><path fill="#DADADA" d="M156.66 58.75h-5.75v4.94h6.43v1.49h-8.37V51.47h8.04v1.49h-6.1v4.33h5.75V58.75z"/><path fill="#DADADA" d="M159.83 65.18V51.47h2.11l4.73 6.94c1.08 1.61 1.96 3.05 2.64 4.46l0.07-0.02c-0.18-1.83-0.22-3.5-0.22-5.63v-5.74h1.81v13.71h-1.94l-4.71-6.96c-1.03-1.53-2.02-3.09-2.75-4.58l-0.07 0.02c0.11 1.73 0.13 3.38 0.13 5.65v5.86H159.83z"/><path fill="#DADADA" d="M177.13 52.98h-4.51v-1.5h10.99v1.51h-4.53v12.2h-1.94V52.98z"/><path fill="#DADADA" d="M184.88 63.02c0.86 0.51 2.09 0.9 3.41 0.9 1.96 0 3.1-0.96 3.1-2.34 0-1.26-0.79-2.01-2.8-2.7 -2.42-0.81-3.92-1.99-3.92-3.9 0-2.14 1.92-3.72 4.8-3.72 1.5 0 2.62 0.33 3.26 0.67l-0.53 1.44c-0.46-0.26-1.45-0.65-2.8-0.65 -2.02 0-2.8 1.12-2.8 2.05 0 1.28 0.9 1.91 2.95 2.64 2.51 0.9 3.77 2.01 3.77 4.03 0 2.12-1.67 3.97-5.17 3.97 -1.43 0-2.99-0.41-3.79-0.89L184.88 63.02z"/><path fill="#DADADA" d="M202.56 51.47v5.74h7.18v-5.74h1.94v13.71h-1.94v-6.43h-7.18v6.43h-1.94V51.47H202.56z"/><path fill="#DADADA" d="M222.65 58.75h-5.75v4.94h6.43v1.49h-8.37V51.47h8.04v1.49h-6.1v4.33h5.75V58.75z"/><path fill="#DADADA" d="M225.82 51.66c0.97-0.16 2.38-0.28 3.68-0.28 2.05 0 3.39 0.37 4.29 1.12 0.73 0.61 1.17 1.55 1.17 2.62 0 1.79-1.23 2.99-2.77 3.48v0.06c1.12 0.37 1.81 1.34 2.16 2.77 0.48 1.91 0.84 3.23 1.15 3.76h-1.98c-0.24-0.41-0.57-1.57-0.97-3.27 -0.44-1.89-1.25-2.6-2.99-2.66h-1.81v5.94h-1.91V51.66zM227.74 57.9h1.96c2.05 0 3.35-1.04 3.35-2.6 0-1.77-1.39-2.54-3.41-2.54 -0.92 0-1.56 0.06-1.89 0.14V57.9z"/><path fill="#DADADA" d="M245.33 58.75h-5.75v4.94h6.43v1.49h-8.37V51.47h8.04v1.49h-6.1v4.33h5.75V58.75z"/><path fill="#D5D6D8" d="M214.67 141.01h-24.12c-1.33 0-2.41-1.08-2.41-2.41v-19.29c0-1.33 1.08-2.41 2.41-2.41h24.12c1.33 0 2.41 1.08 2.41 2.41v19.29C217.08 139.93 216 141.01 214.67 141.01zM213.47 120.51h-21.71v15.68c1.34-1.34 3.48-3.48 4.82-4.82 1.16-1.15 2.38-0.04 2.38-0.04l2.45 2.45c0 0 3.92-3.92 5.99-5.99 1.24-1.24 2.43-0.06 2.43-0.06l3.64 3.64V120.51zM196.58 127.74c-1.33 0-2.41-1.08-2.41-2.41 0-1.33 1.08-2.41 2.41-2.41s2.41 1.08 2.41 2.41C198.99 126.66 197.91 127.74 196.58 127.74z"/><rect x="68.68" y="86.13" fill="#FFFFFF" stroke="#DADADA" stroke-miterlimit="10" width="58.12" height="66.85"/><rect x="75.68" y="90.94" fill="#DADADA" stroke="#C6C6C6" stroke-miterlimit="10" width="18.23" height="14.29"/><rect x="101.28" y="90.94" fill="#EDEDED" stroke="#C6C6C6" stroke-miterlimit="10" width="18.23" height="14.29"/><rect x="75.68" y="112.48" fill="#DADADA" stroke="#C6C6C6" stroke-miterlimit="10" width="18.23" height="14.29"/><rect x="101.28" y="112.48" fill="#DADADA" stroke="#C6C6C6" stroke-miterlimit="10" width="18.23" height="14.29"/><rect x="75.68" y="134.02" fill="#DADADA" stroke="#C6C6C6" stroke-miterlimit="10" width="18.23" height="14.29"/><rect x="101.28" y="134.02" fill="#DADADA" stroke="#C6C6C6" stroke-miterlimit="10" width="18.23" height="14.29"/><path fill="#FFFFFF" d="M135.18 98.09c0 0 16.72-3.72 30.05 0 13.32 3.72 21.46 14.4 21.46 14.4"/><path fill="#DADADA" d="M135.18 98.09c4.58-1.14 9.28-1.76 14.01-2 4.73-0.22 9.5 0.04 14.17 1.02 4.66 1.06 9.09 3.03 13.02 5.69 3.92 2.67 7.48 5.9 10.3 9.68 -1.56-1.77-3.26-3.4-5.06-4.89 -1.79-1.52-3.68-2.91-5.66-4.14 -3.95-2.48-8.27-4.4-12.82-5.36 -4.54-1.04-9.25-1.29-13.93-1.23 -2.34 0.03-4.69 0.16-7.03 0.38C139.84 97.42 137.51 97.71 135.18 98.09z"/></svg>