<?xml version="1.0"?>
<svg width="640" height="370" xmlns="http://www.w3.org/2000/svg">
 <!-- Created with Method Draw - http://github.com/duopixel/Method-Draw/ -->

 <g>
  <title>background</title>
  <rect fill="#fff" id="canvas_background" height="372" width="642" y="-1" x="-1"/>
  <g display="none" overflow="visible" y="0" x="0" height="100%" width="100%" id="canvasGrid">
   <rect fill="url(#gridpattern)" stroke-width="0" y="0" x="0" height="100%" width="100%"/>
  </g>
 </g>
 <g>
  <title>Layer 1</title>
  <g transform="rotate(-14.7183 401.96 251.537)" id="svg_6">
   <g transform="matrix(4.16667 0 0 4.16667 0 0)" id="svg_4"/>
   <path stroke="#e2e2e0" id="svg_5" fill="#e8e8e8" d="m306.027283,113.332993c-36.820984,0 -66.666992,29.846008 -66.666992,66.667007s29.846008,66.666992 66.666992,66.666992s66.666992,-29.845993 66.666992,-66.666992s-29.845978,-66.667007 -66.666992,-66.667007zm0,116.667007c-27.613007,0 -50,-22.386993 -50,-50s22.386993,-50 50,-50c27.613007,0 50,22.386993 50,50c0,27.613007 -22.386993,50 -50,50zm-25,-50c0,-13.807999 11.191986,-25 25,-25s25,11.192001 25,25c0,13.807999 -11.191986,25 -25,25c-13.808014,0 -25,-11.192001 -25,-25z"/>
  </g>
  <path id="svg_7" d="m476.5,306.5l-281.5,14.5" opacity="0.5" stroke-width="1.5" stroke="#ffffff" fill="#e8eaea"/>
  <g transform="rotate(-14.7183 392.933 267.537)" id="svg_13">
   <g transform="matrix(2.26176 0 0 2.26176 175 89.6644)" id="svg_11"/>
   <path id="svg_12" fill="#e8e8e8" d="m394.490997,271.279999l12.011993,27.92099l-9.046997,4.524017l-10.507996,-28.675018l-16.632996,15.104004l0,-58.805984l45.234985,36.188004l-21.05899,3.743988z"/>
  </g>
  <text transform="matrix(1.83908 0 0 1.83908 -51.605 -43.9177)" stroke="#ffffff" xml:space="preserve" text-anchor="left" font-family="'Trebuchet MS', Gadget, sans-serif" font-size="24" id="svg_15" y="77.698539" x="28.773745" stroke-opacity="null" stroke-width="0" fill="#e8e8e8">DRAG HOTSPOT ELEMENTS HERE</text>
  <!-- Created with Method Draw - http://github.com/duopixel/Method-Draw/ -->
  <!-- Created with Method Draw - http://github.com/duopixel/Method-Draw/ -->
 </g>
</svg>