<?xml version="1.0"?>
<svg width="602" height="358" xmlns="http://www.w3.org/2000/svg">
 <g>
  <title>background</title>
  <rect x="-1" y="-1" width="604" height="360" id="canvas_background" fill="none"/>
 </g>

 <g>
  <title>Layer 1</title>
  <g id="svg_1"/>
  <path d="m273.936218,202.520569c0,-14.946686 12.117065,-27.063766 27.063782,-27.063766s27.063202,12.117081 27.063202,27.063766c0,14.946686 -12.117035,27.063217 -27.063751,27.063217c-14.946686,0 -27.063782,-12.117065 -27.063782,-27.063782l0.000549,0.000565zm59.274933,-59.513046c21.112244,11.450882 35.447479,33.807953 35.447479,59.513046s-14.335236,48.06218 -35.447479,59.513062c9.317047,-14.827362 15.14975,-36.000381 15.14975,-59.513062c0,-23.512146 -5.832703,-44.685684 -15.14975,-59.513046zm-79.572067,59.513046c0,23.5121 5.832169,44.685699 15.149796,59.513062c-21.111725,-11.451492 -35.447495,-33.807968 -35.447495,-59.513062c0,-25.705093 14.33522,-48.062164 35.447495,-59.513046c-9.317627,14.826797 -15.149796,36.000366 -15.149796,59.513046zm-40.595398,0c0,36.34523 11.502884,68.96637 29.738449,91.280731c-30.087692,-19.229095 -50.036133,-52.924316 -50.036133,-91.280731c0,-38.355911 19.948441,-72.051102 50.036133,-91.280777c-18.235565,22.314392 -29.738983,54.934982 -29.738983,91.280777l0.000534,0zm146.174728,-91.280228c30.086609,19.229126 50.035583,52.924316 50.035583,91.280197s-19.948975,72.051117 -50.035583,91.279724c18.235016,-22.313873 29.737915,-54.934998 29.737915,-91.279724c0,-36.3452 -11.502899,-68.96637 -29.737915,-91.280197z" id="svg_2" fill="#e3e3e3"/>
  <text fill="#d6d6d6" stroke-width="0" stroke-opacity="null" x="88.572041" y="80.563163" id="svg_3" font-size="24" font-family="'Trebuchet MS', Gadget, sans-serif" text-anchor="left" xml:space="preserve" transform="matrix(1.5169 0 0 1.5169 -83.3622 -37.5609)">DRAG HOTSPOT ELEMENT HERE</text>
 </g>
</svg>